# xmcd
#
# Track frame offsets: 
#        150
#        15819
#        33971
#        54032
#
# Disc length: 892 seconds
#
# Revision: 0
# Processed by: cddbd v1.5.1PL0 Copyright (c) Steve Scherf et al.
# Submitted via: ExactAudioCopy v0.95b3
#
DISCID=19037a04
DTITLE=Sexy baby sexy hot - High Bloove
DYEAR=2001
DGENRE=Acid Jazz
TTITLE0=Only After Midnight
TTITLE1=My Girlfriend Frank
TTITLE2=Easy
TTITLE3=Chips
EXTD=
EXTT0=
EXTT1=
EXTT2=
EXTT3=
PLAYORDER=
